<mxfile host="Electron" agent="Mozilla/5.0 (Windows NT 10.0; Win64; x64) AppleWebKit/537.36 (KHTML, like Gecko) draw.io/24.7.8 Chrome/128.0.6613.36 Electron/32.0.1 Safari/537.36" version="24.7.8">
  <diagram name="1 oldal" id="9XuXWk3r11svLcQT9Btm">
    <mxGraphModel dx="524" dy="919" grid="1" gridSize="10" guides="1" tooltips="1" connect="1" arrows="1" fold="1" page="1" pageScale="1" pageWidth="827" pageHeight="1169" math="0" shadow="0">
      <root>
        <mxCell id="0" />
        <mxCell id="1" parent="0" />
        <mxCell id="NU26wPEUISHamaxfM3EF-1" value="Tanfolyam" style="rounded=0;whiteSpace=wrap;html=1;fillColor=#bac8d3;strokeColor=#23445d;" vertex="1" parent="1">
          <mxGeometry x="134" y="490" width="120" height="60" as="geometry" />
        </mxCell>
        <mxCell id="NU26wPEUISHamaxfM3EF-2" style="edgeStyle=orthogonalEdgeStyle;rounded=0;orthogonalLoop=1;jettySize=auto;html=1;exitX=1;exitY=0.5;exitDx=0;exitDy=0;entryX=0;entryY=0.5;entryDx=0;entryDy=0;" edge="1" parent="1" source="NU26wPEUISHamaxfM3EF-4" target="NU26wPEUISHamaxfM3EF-5">
          <mxGeometry relative="1" as="geometry" />
        </mxCell>
        <mxCell id="NU26wPEUISHamaxfM3EF-3" style="edgeStyle=orthogonalEdgeStyle;rounded=0;orthogonalLoop=1;jettySize=auto;html=1;exitX=0;exitY=0.5;exitDx=0;exitDy=0;entryX=1;entryY=0.5;entryDx=0;entryDy=0;" edge="1" parent="1" source="NU26wPEUISHamaxfM3EF-4" target="NU26wPEUISHamaxfM3EF-1">
          <mxGeometry relative="1" as="geometry" />
        </mxCell>
        <mxCell id="NU26wPEUISHamaxfM3EF-4" value="T-R" style="rhombus;whiteSpace=wrap;html=1;" vertex="1" parent="1">
          <mxGeometry x="374" y="480" width="80" height="80" as="geometry" />
        </mxCell>
        <mxCell id="NU26wPEUISHamaxfM3EF-5" value="Résztvevő" style="rounded=0;whiteSpace=wrap;html=1;fillColor=#bac8d3;strokeColor=#23445d;" vertex="1" parent="1">
          <mxGeometry x="574" y="490" width="120" height="60" as="geometry" />
        </mxCell>
        <mxCell id="NU26wPEUISHamaxfM3EF-6" value="&lt;u&gt;tkód&lt;span style=&quot;white-space: pre;&quot;&gt;&#x9;&lt;/span&gt;&lt;/u&gt;" style="ellipse;whiteSpace=wrap;html=1;fillColor=#b0e3e6;strokeColor=#0e8088;" vertex="1" parent="1">
          <mxGeometry x="34" y="400" width="100" height="50" as="geometry" />
        </mxCell>
        <mxCell id="NU26wPEUISHamaxfM3EF-7" value="nyelv" style="ellipse;whiteSpace=wrap;html=1;fillColor=#b0e3e6;strokeColor=#0e8088;" vertex="1" parent="1">
          <mxGeometry x="144" y="400" width="100" height="50" as="geometry" />
        </mxCell>
        <mxCell id="NU26wPEUISHamaxfM3EF-8" value="tantárgy" style="ellipse;whiteSpace=wrap;html=1;fillColor=#b0e3e6;strokeColor=#0e8088;" vertex="1" parent="1">
          <mxGeometry x="254" y="400" width="100" height="50" as="geometry" />
        </mxCell>
        <mxCell id="NU26wPEUISHamaxfM3EF-9" value="" style="endArrow=none;html=1;rounded=0;entryX=0.5;entryY=0;entryDx=0;entryDy=0;" edge="1" parent="1" target="NU26wPEUISHamaxfM3EF-1">
          <mxGeometry width="50" height="50" relative="1" as="geometry">
            <mxPoint x="84" y="450" as="sourcePoint" />
            <mxPoint x="134" y="400" as="targetPoint" />
          </mxGeometry>
        </mxCell>
        <mxCell id="NU26wPEUISHamaxfM3EF-10" value="" style="endArrow=none;html=1;rounded=0;exitX=0.5;exitY=0;exitDx=0;exitDy=0;" edge="1" parent="1" source="NU26wPEUISHamaxfM3EF-1">
          <mxGeometry width="50" height="50" relative="1" as="geometry">
            <mxPoint x="254" y="500" as="sourcePoint" />
            <mxPoint x="304" y="450" as="targetPoint" />
          </mxGeometry>
        </mxCell>
        <mxCell id="NU26wPEUISHamaxfM3EF-11" value="" style="endArrow=classic;html=1;rounded=0;exitX=0;exitY=0.5;exitDx=0;exitDy=0;" edge="1" parent="1">
          <mxGeometry width="50" height="50" relative="1" as="geometry">
            <mxPoint x="374" y="519.71" as="sourcePoint" />
            <mxPoint x="270" y="519.71" as="targetPoint" />
          </mxGeometry>
        </mxCell>
        <mxCell id="NU26wPEUISHamaxfM3EF-12" value="" style="endArrow=classic;html=1;rounded=0;" edge="1" parent="1">
          <mxGeometry width="50" height="50" relative="1" as="geometry">
            <mxPoint x="480" y="520" as="sourcePoint" />
            <mxPoint x="560" y="520" as="targetPoint" />
          </mxGeometry>
        </mxCell>
        <mxCell id="NU26wPEUISHamaxfM3EF-13" value="" style="endArrow=none;html=1;rounded=0;exitX=0.5;exitY=1;exitDx=0;exitDy=0;entryX=0.5;entryY=0;entryDx=0;entryDy=0;" edge="1" parent="1" source="NU26wPEUISHamaxfM3EF-7" target="NU26wPEUISHamaxfM3EF-1">
          <mxGeometry width="50" height="50" relative="1" as="geometry">
            <mxPoint x="250" y="300" as="sourcePoint" />
            <mxPoint x="300" y="250" as="targetPoint" />
          </mxGeometry>
        </mxCell>
        <mxCell id="NU26wPEUISHamaxfM3EF-19" value="&lt;u&gt;rkód&lt;/u&gt;" style="ellipse;whiteSpace=wrap;html=1;fillColor=#b0e3e6;strokeColor=#0e8088;" vertex="1" parent="1">
          <mxGeometry x="474" y="400" width="100" height="50" as="geometry" />
        </mxCell>
        <mxCell id="NU26wPEUISHamaxfM3EF-20" value="lakcím" style="ellipse;whiteSpace=wrap;html=1;fillColor=#b0e3e6;strokeColor=#0e8088;" vertex="1" parent="1">
          <mxGeometry x="584" y="400" width="100" height="50" as="geometry" />
        </mxCell>
        <mxCell id="NU26wPEUISHamaxfM3EF-21" value="név" style="ellipse;whiteSpace=wrap;html=1;fillColor=#b0e3e6;strokeColor=#0e8088;" vertex="1" parent="1">
          <mxGeometry x="694" y="400" width="100" height="50" as="geometry" />
        </mxCell>
        <mxCell id="NU26wPEUISHamaxfM3EF-22" value="" style="endArrow=none;html=1;rounded=0;entryX=0.5;entryY=0;entryDx=0;entryDy=0;" edge="1" parent="1">
          <mxGeometry width="50" height="50" relative="1" as="geometry">
            <mxPoint x="524" y="450" as="sourcePoint" />
            <mxPoint x="634" y="490" as="targetPoint" />
          </mxGeometry>
        </mxCell>
        <mxCell id="NU26wPEUISHamaxfM3EF-23" value="" style="endArrow=none;html=1;rounded=0;exitX=0.5;exitY=0;exitDx=0;exitDy=0;" edge="1" parent="1">
          <mxGeometry width="50" height="50" relative="1" as="geometry">
            <mxPoint x="634" y="490" as="sourcePoint" />
            <mxPoint x="744" y="450" as="targetPoint" />
          </mxGeometry>
        </mxCell>
        <mxCell id="NU26wPEUISHamaxfM3EF-24" value="" style="endArrow=none;html=1;rounded=0;exitX=0.5;exitY=1;exitDx=0;exitDy=0;entryX=0.5;entryY=0;entryDx=0;entryDy=0;" edge="1" parent="1" source="NU26wPEUISHamaxfM3EF-20" target="NU26wPEUISHamaxfM3EF-5">
          <mxGeometry width="50" height="50" relative="1" as="geometry">
            <mxPoint x="390" y="320" as="sourcePoint" />
            <mxPoint x="440" y="270" as="targetPoint" />
          </mxGeometry>
        </mxCell>
        <mxCell id="NU26wPEUISHamaxfM3EF-25" value="&lt;u&gt;ir.szám&lt;/u&gt;" style="ellipse;whiteSpace=wrap;html=1;fillColor=#b0e3e6;strokeColor=#0e8088;" vertex="1" parent="1">
          <mxGeometry x="400" y="310" width="100" height="50" as="geometry" />
        </mxCell>
        <mxCell id="NU26wPEUISHamaxfM3EF-26" value="város" style="ellipse;whiteSpace=wrap;html=1;fillColor=#b0e3e6;strokeColor=#0e8088;" vertex="1" parent="1">
          <mxGeometry x="510" y="310" width="100" height="50" as="geometry" />
        </mxCell>
        <mxCell id="NU26wPEUISHamaxfM3EF-27" value="utca" style="ellipse;whiteSpace=wrap;html=1;fillColor=#b0e3e6;strokeColor=#0e8088;" vertex="1" parent="1">
          <mxGeometry x="620" y="310" width="100" height="50" as="geometry" />
        </mxCell>
        <mxCell id="NU26wPEUISHamaxfM3EF-31" value="házszám" style="ellipse;whiteSpace=wrap;html=1;fillColor=#b0e3e6;strokeColor=#0e8088;" vertex="1" parent="1">
          <mxGeometry x="727" y="310" width="100" height="50" as="geometry" />
        </mxCell>
        <mxCell id="NU26wPEUISHamaxfM3EF-34" value="" style="endArrow=none;html=1;rounded=0;entryX=0.5;entryY=0;entryDx=0;entryDy=0;exitX=0.5;exitY=1;exitDx=0;exitDy=0;" edge="1" parent="1" source="NU26wPEUISHamaxfM3EF-25" target="NU26wPEUISHamaxfM3EF-20">
          <mxGeometry width="50" height="50" relative="1" as="geometry">
            <mxPoint x="500" y="180" as="sourcePoint" />
            <mxPoint x="550" y="130" as="targetPoint" />
          </mxGeometry>
        </mxCell>
        <mxCell id="NU26wPEUISHamaxfM3EF-35" value="" style="endArrow=none;html=1;rounded=0;entryX=0.5;entryY=0;entryDx=0;entryDy=0;exitX=0.5;exitY=1;exitDx=0;exitDy=0;" edge="1" parent="1" source="NU26wPEUISHamaxfM3EF-26" target="NU26wPEUISHamaxfM3EF-20">
          <mxGeometry width="50" height="50" relative="1" as="geometry">
            <mxPoint x="500" y="180" as="sourcePoint" />
            <mxPoint x="550" y="130" as="targetPoint" />
          </mxGeometry>
        </mxCell>
        <mxCell id="NU26wPEUISHamaxfM3EF-36" value="" style="endArrow=none;html=1;rounded=0;entryX=0.5;entryY=0;entryDx=0;entryDy=0;exitX=0.5;exitY=1;exitDx=0;exitDy=0;" edge="1" parent="1" source="NU26wPEUISHamaxfM3EF-27" target="NU26wPEUISHamaxfM3EF-20">
          <mxGeometry width="50" height="50" relative="1" as="geometry">
            <mxPoint x="500" y="180" as="sourcePoint" />
            <mxPoint x="550" y="130" as="targetPoint" />
          </mxGeometry>
        </mxCell>
        <mxCell id="NU26wPEUISHamaxfM3EF-37" value="" style="endArrow=none;html=1;rounded=0;exitX=0.5;exitY=0;exitDx=0;exitDy=0;entryX=0.5;entryY=1;entryDx=0;entryDy=0;" edge="1" parent="1" source="NU26wPEUISHamaxfM3EF-20" target="NU26wPEUISHamaxfM3EF-31">
          <mxGeometry width="50" height="50" relative="1" as="geometry">
            <mxPoint x="500" y="180" as="sourcePoint" />
            <mxPoint x="550" y="130" as="targetPoint" />
          </mxGeometry>
        </mxCell>
      </root>
    </mxGraphModel>
  </diagram>
</mxfile>
